<svg id="Layer_1" data-name="Layer 1" xmlns="http://www.w3.org/2000/svg" viewBox="0 0 468.67 526.67" href="/">
  <defs>
    <style>.cls-1{fill:#fff;stroke:#000;stroke-miterlimit:10;stroke-width:4px;}</style>
  </defs>
  <title href="/">logo-no-text</title>
  <g id="Layer_2" data-name="Layer 2">
    <g id="Layer_1-2" data-name="Layer 1-2">
      <rect href="/" class="cls-1" x="2" y="2" width="464.67" height="522.67" rx="103.67" ry="103.67"/>
      <path d="M133.09,128.74c.71-6.46.9-12.5,2.11-18.32,4.77-22.93,19.21-38.24,40.14-47.06,30-12.63,61.28-14.74,92.48-5.8,34.74,10,52.15,35.44,57.86,70,.41,2.46.64,4.94,1,7.82l9.43-.42c13.74-.56,27.29.24,40.4,4.95,29.62,10.64,46.28,43.48,37.32,73.74a49.65,49.65,0,0,1-19.62,27c-10.6,7.36-22.09,13.49-33.44,19.7-3,1.64-4.39,3-4.36,6.53.18,22.17.09,44.33.09,66.5,0,8-.71,8.8-8.91,8.67-27.49-.43-55-1-82.48-1.31-4.4,0-6.42-1.86-8-5.8a109.05,109.05,0,0,0-8.55-16.83c-3-4.69-7.68-7.06-13.56-7.09-46.33-.19-92.65-.52-139-.71-8.83,0-17.66.33-26.49.61-1.63.05-3.79,0-4.73,1a9.61,9.61,0,0,0-2.65,5.7c0,.9,2.65,2.78,4.12,2.79,14.16.11,28.32-.1,42.47-.18q40.49-.23,81-.35a23.45,23.45,0,0,1,6.39.92c7.88,2.3,12.69,9.72,11.28,17.12-1.31,6.77-7.69,10.82-15.91,10.76q-52.46-.4-104.92-.47c-5.46,0-10.93,1-16.38,1.65a8.78,8.78,0,0,0-4.24,1.33,51.37,51.37,0,0,0-5.13,5.3c2.39,1.06,4.77,3,7.16,3.05,38.32.06,76.65-.25,115-.1a40.66,40.66,0,0,1,15.36,3.39c5.55,2.37,8.61,7.36,8,13.74s-5,10.17-10.72,11a198.1,198.1,0,0,1-27.32,1.85c-27.67.13-55.33-.27-83-.15A101.23,101.23,0,0,0,67,391.48c-1.84.35-3.32,2.62-5,4,2,.88,4,2.49,5.94,2.54,11.67.25,23.33.14,35,.14q48,0,96,0c3.77,0,6.1-.87,8.46-4.33,8.8-12.87,21.87-19.82,36.57-23.57a144.55,144.55,0,0,1,75.59.74c18.38,5.11,32.12,15.78,35.86,35.58,3.92,20.83-2.89,38.14-19.43,51.37-11.66,9.33-25.42,13.72-40,15.42-24.65,2.87-48.3-.28-69.72-13.59-6.44-4-12.19-9.24-17.73-14.47-2.62-2.48-4.88-3.76-8.55-3.75q-65.74.19-131.5.06c-1.65,0-3.66.33-4.87-.47a6.73,6.73,0,0,1-2.91-4.45c-.07-1.31,1.52-3.12,2.85-4,1.1-.71,2.9-.46,4.38-.46,45.5-.06,91-.15,136.5,0a11,11,0,0,1,7.39,3c21.5,24.34,49,32,80.25,29.14,11.57-1.06,22.67-3.86,32.7-9.92C337.5,446.84,345.55,436,347,420.83c1.69-17.59-5.62-30.58-21.76-37.74-17.68-7.85-36.5-9.1-55.38-7.44A148.75,148.75,0,0,0,238.6,382c-11.54,3.62-20.95,10.65-26.45,22.16-.81,1.69-4.29,2.94-6.55,3-21.66.29-43.33.3-65,.34H73.1a81.11,81.11,0,0,1-9.48-.46,12.81,12.81,0,0,1-10.82-9.73c-1.12-5,.67-10.26,6.09-12.41,6.21-2.47,13-4.51,19.65-4.59,34.15-.45,68.32-.17,102.48-.25a62.23,62.23,0,0,0,11.87-1.2c1.47-.29,3.69-2.11,3.69-3.25a6.31,6.31,0,0,0-2.77-4.71,16.67,16.67,0,0,0-7.57-1.95q-50.22-.31-100.46-.34c-6.33,0-12.66.28-19,.29-7.84,0-13.51-3.82-15-10-1.58-6.43,1.6-12.92,9.28-15.67A61.82,61.82,0,0,1,81,339.32c37-.27,74,0,110.93.13,3,0,6.24,0,6.28-3.89s-2.43-6.25-6.35-6.34c-9.33-.2-18.66-.31-28-.24-32.66.23-65.32.58-98,.82-8.33.06-12-2.78-13.13-9.9-1.35-8.08,2.27-15.53,9.56-16.9a129.39,129.39,0,0,1,23.83-1.76c49.49.07,99,.41,148.48.56,9.05,0,16.27,3.62,21.32,10.91,3.3,4.75,5.57,10.19,8.56,15.17.87,1.47,2.61,3.44,4,3.45,26,.2,51.92.15,78.48.15,0-.85.22-2.77.22-4.7,0-21.66.1-43.33,0-65,0-4.28,1.58-6.21,5.49-8.16C364.3,247.76,376.2,242,387,234.57c16.7-11.48,22.87-27.86,18.65-48s-15.76-32.92-35.37-38.68c-15-4.41-30.24-4.32-45.59-2.78-6.27.63-7.12-.35-7.3-6.73-1-32.51-19.22-70-68.25-75.44-22.67-2.52-45-1-66.42,7.29-22.56,8.69-37,24.43-39.58,49.34-.27,2.59,0,5.23,0,8.28,22.65-5.19,42.9.86,62.39,11,.88.46,1.77.92,2.65,1.4,2.83,1.56,4,4.22,2,6.55-1.19,1.36-4.57,2.11-6.32,1.44-6.81-2.62-13.18-6.46-20-8.87-34.21-12-64,2.22-78.06,37.1-.31.77-.62,1.54-.89,2.33-1,3.06-3.17,4.27-6.22,3.33-3.44-1.06-3.72-3.9-2.42-6.46,3.9-7.69,7.78-15.44,12.38-22.72,2.87-4.56,7-8.32,10.57-12.45-32.35,4.9-52.5,28-54.1,62.46-.64,13.87.24,27.71,5.71,40.75,4.07,9.68,10.42,17.08,21.51,18.81a29.8,29.8,0,0,0,7,.08c4-.3,6,1.44,6,5.41,0,6-.22,12-.28,18,0,3.18-1.36,5.18-4.71,5.11s-4.5-2.27-4.46-5.37V272.42C77.74,271.15,67,260.69,61.18,244.5a84.65,84.65,0,0,1-4-15.5c-2.23-14.43-2.36-28.92.87-43.23C65.12,154.46,86.31,138,116.29,131c2.76-.64,5.58-1,8.38-1.39S130.26,129,133.09,128.74Z"/>
      <path d="M241.77,241.07c29.25.21,50.63,1.78,71.62,7,1.13.27,2.25.62,3.38.88,3.17.73,5.28,2.33,4.31,5.93s-3.76,3.67-6.8,3c-6.51-1.38-13-3-19.55-4-28-4.51-56.09-4-84.17-1.31a535.55,535.55,0,0,0-86.44,15.19c-3,.81-5.81.68-6.74-3-1-3.93,1.49-5.45,4.78-6.07,24-4.56,47.92-9.8,72.08-13.39C212.47,242.55,231,242,241.77,241.07Z"/>
      <path d="M297.3,383.7c24.08,1,36.95,11.08,42.5,31.64.87,3.22,1.12,6.18-2.59,7.41-4.17,1.37-5.42-1.64-6.43-4.94-5.23-17.14-12.42-23-30.08-24.74-.66-.07-1.32-.09-2-.15-3.32-.29-5.72-2.06-5-5.38C294.17,385.69,296.68,384.33,297.3,383.7Z"/>
      <path d="M228,314.92c7.68-.11,12.55,2.27,15.78,6.66a99.1,99.1,0,0,1,8.53,15c1.46,3,1.21,6.11-2.67,7.19-3.45,1-5-1.19-6.11-4.24-1.25-3.39-2.44-7.14-4.8-9.68a21.74,21.74,0,0,0-9.39-5.59c-3.33-1-6-2.36-5.29-5.77C224.44,316.71,227.37,315.45,228,314.92Z"/>
    </g>
  </g>
</svg>